<mxfile host="Electron" agent="Mozilla/5.0 (Windows NT 10.0; Win64; x64) AppleWebKit/537.36 (KHTML, like Gecko) draw.io/26.0.16 Chrome/132.0.6834.196 Electron/34.2.0 Safari/537.36" version="26.0.16">
  <diagram name="Page-1" id="lf3GEtGUB8VhACDYCo2x">
    <mxGraphModel dx="1434" dy="836" grid="0" gridSize="10" guides="1" tooltips="1" connect="1" arrows="1" fold="1" page="1" pageScale="1" pageWidth="1169" pageHeight="827" math="0" shadow="0">
      <root>
        <mxCell id="0" />
        <mxCell id="1" parent="0" />
        <mxCell id="qizNdXYnVyPi3BkZtSoY-1" value="" style="rounded=0;whiteSpace=wrap;html=1;strokeWidth=2;fillColor=#f5f5f5;fontColor=#333333;strokeColor=#666666;" parent="1" vertex="1">
          <mxGeometry x="886" y="171" width="134" height="120" as="geometry" />
        </mxCell>
        <mxCell id="qizNdXYnVyPi3BkZtSoY-2" value="" style="endArrow=classic;html=1;rounded=0;exitX=0;exitY=0.333;exitDx=0;exitDy=0;exitPerimeter=0;fillColor=#d5e8d4;strokeColor=#82b366;strokeWidth=2;" parent="1" source="qizNdXYnVyPi3BkZtSoY-1" edge="1">
          <mxGeometry width="50" height="50" relative="1" as="geometry">
            <mxPoint x="756" y="281" as="sourcePoint" />
            <mxPoint x="646" y="211" as="targetPoint" />
          </mxGeometry>
        </mxCell>
        <mxCell id="qizNdXYnVyPi3BkZtSoY-3" value="" style="rounded=0;whiteSpace=wrap;html=1;strokeWidth=2;fillColor=#f5f5f5;fontColor=#333333;strokeColor=#666666;" parent="1" vertex="1">
          <mxGeometry x="510" y="171" width="136" height="120" as="geometry" />
        </mxCell>
        <mxCell id="qizNdXYnVyPi3BkZtSoY-4" value="" style="endArrow=classic;html=1;rounded=0;exitX=1.004;exitY=0.666;exitDx=0;exitDy=0;exitPerimeter=0;entryX=-0.009;entryY=0.662;entryDx=0;entryDy=0;entryPerimeter=0;fillColor=#dae8fc;strokeColor=#6c8ebf;strokeWidth=2;" parent="1" source="qizNdXYnVyPi3BkZtSoY-3" target="qizNdXYnVyPi3BkZtSoY-1" edge="1">
          <mxGeometry width="50" height="50" relative="1" as="geometry">
            <mxPoint x="896" y="221" as="sourcePoint" />
            <mxPoint x="656" y="221" as="targetPoint" />
          </mxGeometry>
        </mxCell>
        <mxCell id="qizNdXYnVyPi3BkZtSoY-5" value="&lt;font style=&quot;font-size: 16px;&quot;&gt;&lt;b&gt;Tx&lt;/b&gt;&lt;/font&gt;" style="text;html=1;align=center;verticalAlign=middle;whiteSpace=wrap;rounded=0;" parent="1" vertex="1">
          <mxGeometry x="886" y="201" width="50" height="20" as="geometry" />
        </mxCell>
        <mxCell id="qizNdXYnVyPi3BkZtSoY-6" value="&lt;font style=&quot;font-size: 16px;&quot;&gt;&lt;b&gt;Rx&lt;/b&gt;&lt;/font&gt;" style="text;html=1;align=center;verticalAlign=middle;whiteSpace=wrap;rounded=0;" parent="1" vertex="1">
          <mxGeometry x="886" y="241" width="50" height="20" as="geometry" />
        </mxCell>
        <mxCell id="qizNdXYnVyPi3BkZtSoY-8" value="&lt;font style=&quot;font-size: 16px;&quot;&gt;&lt;b&gt;Tx&lt;/b&gt;&lt;/font&gt;" style="text;html=1;align=center;verticalAlign=middle;whiteSpace=wrap;rounded=0;" parent="1" vertex="1">
          <mxGeometry x="596" y="241" width="50" height="20" as="geometry" />
        </mxCell>
        <mxCell id="qizNdXYnVyPi3BkZtSoY-9" value="&lt;font style=&quot;font-size: 16px;&quot;&gt;&lt;b&gt;Rx&lt;/b&gt;&lt;/font&gt;" style="text;html=1;align=center;verticalAlign=middle;whiteSpace=wrap;rounded=0;" parent="1" vertex="1">
          <mxGeometry x="596" y="201" width="50" height="20" as="geometry" />
        </mxCell>
        <mxCell id="qizNdXYnVyPi3BkZtSoY-12" value="" style="rounded=0;whiteSpace=wrap;html=1;strokeWidth=2;fillColor=#FAFAFA;fontColor=#333333;strokeColor=#000000;" parent="1" vertex="1">
          <mxGeometry x="606" y="368" width="400" height="266" as="geometry" />
        </mxCell>
        <mxCell id="qizNdXYnVyPi3BkZtSoY-13" value="&lt;span style=&quot;font-size: 16px;&quot;&gt;&lt;b&gt;uložiště&lt;/b&gt;&lt;/span&gt;" style="rounded=0;whiteSpace=wrap;html=1;strokeWidth=2;fillColor=#e1d5e7;strokeColor=#000000;" parent="1" vertex="1">
          <mxGeometry x="896" y="377" width="100" height="66" as="geometry" />
        </mxCell>
        <mxCell id="qizNdXYnVyPi3BkZtSoY-21" value="" style="group;strokeWidth=2;fillColor=#dae8fc;strokeColor=#6c8ebf;container=0;" parent="1" vertex="1" connectable="0">
          <mxGeometry x="756" y="377" width="90" height="66" as="geometry" />
        </mxCell>
        <mxCell id="qizNdXYnVyPi3BkZtSoY-24" value="" style="group;strokeWidth=2;strokeColor=#000000;container=0;fillColor=#d5e8d4;" parent="1" vertex="1" connectable="0">
          <mxGeometry x="646" y="377" width="90" height="66" as="geometry" />
        </mxCell>
        <mxCell id="qizNdXYnVyPi3BkZtSoY-11" value="" style="endArrow=classic;html=1;rounded=0;fillColor=#d5e8d4;strokeColor=#82b366;strokeWidth=2;entryX=0.75;entryY=0;entryDx=0;entryDy=0;" parent="1" target="qizNdXYnVyPi3BkZtSoY-25" edge="1">
          <mxGeometry width="50" height="50" relative="1" as="geometry">
            <mxPoint x="714" y="211" as="sourcePoint" />
            <mxPoint x="766" y="371" as="targetPoint" />
          </mxGeometry>
        </mxCell>
        <mxCell id="qizNdXYnVyPi3BkZtSoY-10" value="" style="endArrow=classic;html=1;rounded=0;fillColor=#dae8fc;strokeColor=#6c8ebf;strokeWidth=2;entryX=0.75;entryY=0;entryDx=0;entryDy=0;" parent="1" target="qizNdXYnVyPi3BkZtSoY-17" edge="1">
          <mxGeometry width="50" height="50" relative="1" as="geometry">
            <mxPoint x="823" y="250" as="sourcePoint" />
            <mxPoint x="806" y="371" as="targetPoint" />
          </mxGeometry>
        </mxCell>
        <mxCell id="qizNdXYnVyPi3BkZtSoY-30" value="&lt;font style=&quot;font-size: 16px;&quot;&gt;&lt;b&gt;Wi-Fi&lt;/b&gt;&lt;/font&gt;&lt;div&gt;&lt;font style=&quot;font-size: 16px;&quot;&gt;&lt;b&gt;modul&lt;/b&gt;&lt;/font&gt;&lt;/div&gt;" style="rounded=0;whiteSpace=wrap;html=1;strokeWidth=2;fillColor=#ffe6cc;strokeColor=#000000;" parent="1" vertex="1">
          <mxGeometry x="646" y="555" width="200" height="70" as="geometry" />
        </mxCell>
        <mxCell id="qizNdXYnVyPi3BkZtSoY-41" value="" style="shape=flexArrow;endArrow=classic;html=1;rounded=0;endWidth=54.4;endSize=14.868;width=25.2;fillColor=#f8cecc;strokeColor=#b85450;" parent="1" edge="1">
          <mxGeometry width="50" height="50" relative="1" as="geometry">
            <mxPoint x="640" y="590" as="sourcePoint" />
            <mxPoint x="360" y="590" as="targetPoint" />
            <Array as="points">
              <mxPoint x="510" y="590" />
            </Array>
          </mxGeometry>
        </mxCell>
        <mxCell id="qizNdXYnVyPi3BkZtSoY-17" value="" style="rounded=0;whiteSpace=wrap;html=1;strokeWidth=2;container=0;fillColor=#dae8fc;strokeColor=#000000;" parent="1" vertex="1">
          <mxGeometry x="756" y="377" width="90" height="66" as="geometry" />
        </mxCell>
        <mxCell id="qizNdXYnVyPi3BkZtSoY-15" value="&lt;font style=&quot;font-size: 16px;&quot;&gt;&lt;b&gt;Rx&lt;/b&gt;&lt;/font&gt;" style="text;html=1;align=right;verticalAlign=middle;whiteSpace=wrap;rounded=0;container=0;" parent="1" vertex="1">
          <mxGeometry x="801" y="385.25" width="37.50000000000001" height="16.5" as="geometry" />
        </mxCell>
        <mxCell id="qizNdXYnVyPi3BkZtSoY-18" value="&lt;font style=&quot;font-size: 16px;&quot;&gt;&lt;b&gt;Tx&lt;/b&gt;&lt;/font&gt;" style="text;html=1;align=left;verticalAlign=middle;whiteSpace=wrap;rounded=0;container=0;" parent="1" vertex="1">
          <mxGeometry x="763.5" y="385.25" width="37.50000000000001" height="16.5" as="geometry" />
        </mxCell>
        <mxCell id="qizNdXYnVyPi3BkZtSoY-20" value="&lt;font style=&quot;font-size: 16px;&quot;&gt;&lt;b&gt;Port 0&lt;/b&gt;&lt;/font&gt;" style="text;html=1;align=center;verticalAlign=middle;whiteSpace=wrap;rounded=0;container=0;" parent="1" vertex="1">
          <mxGeometry x="763.5" y="418.25" width="75.00000000000001" height="16.5" as="geometry" />
        </mxCell>
        <mxCell id="qizNdXYnVyPi3BkZtSoY-25" value="" style="rounded=0;whiteSpace=wrap;html=1;strokeWidth=2;container=0;fillColor=#d5e8d4;strokeColor=#000000;" parent="1" vertex="1">
          <mxGeometry x="646" y="377" width="90" height="66" as="geometry" />
        </mxCell>
        <mxCell id="qizNdXYnVyPi3BkZtSoY-26" value="&lt;font style=&quot;font-size: 16px;&quot;&gt;&lt;b&gt;Rx&lt;/b&gt;&lt;/font&gt;" style="text;html=1;align=right;verticalAlign=middle;whiteSpace=wrap;rounded=0;container=0;fillColor=#d5e8d4;strokeColor=none;" parent="1" vertex="1">
          <mxGeometry x="691" y="385.25" width="37.50000000000001" height="16.5" as="geometry" />
        </mxCell>
        <mxCell id="qizNdXYnVyPi3BkZtSoY-27" value="&lt;font style=&quot;font-size: 16px;&quot;&gt;&lt;b&gt;Tx&lt;/b&gt;&lt;/font&gt;" style="text;html=1;align=left;verticalAlign=middle;whiteSpace=wrap;rounded=0;container=0;fillColor=#d5e8d4;strokeColor=none;" parent="1" vertex="1">
          <mxGeometry x="653.5" y="385.25" width="37.50000000000001" height="16.5" as="geometry" />
        </mxCell>
        <mxCell id="qizNdXYnVyPi3BkZtSoY-28" value="&lt;font style=&quot;font-size: 16px;&quot;&gt;&lt;b&gt;Port 0&lt;/b&gt;&lt;/font&gt;" style="text;html=1;align=center;verticalAlign=middle;whiteSpace=wrap;rounded=0;container=0;fillColor=#d5e8d4;strokeColor=none;" parent="1" vertex="1">
          <mxGeometry x="653.5" y="418.25" width="75.00000000000001" height="16.5" as="geometry" />
        </mxCell>
        <mxCell id="qizNdXYnVyPi3BkZtSoY-65" value="&lt;span style=&quot;font-size: 16px;&quot;&gt;&lt;b&gt;logika&lt;/b&gt;&lt;/span&gt;&lt;div&gt;&lt;span style=&quot;font-size: 16px;&quot;&gt;&lt;b&gt;záznamníku dat&lt;/b&gt;&lt;/span&gt;&lt;/div&gt;" style="rounded=0;whiteSpace=wrap;html=1;strokeWidth=2;fillColor=#fff2cc;strokeColor=#000000;" parent="1" vertex="1">
          <mxGeometry x="646" y="463" width="200" height="60" as="geometry" />
        </mxCell>
        <mxCell id="qizNdXYnVyPi3BkZtSoY-66" value="" style="endArrow=classic;html=1;rounded=0;exitX=0.444;exitY=0.996;exitDx=0;exitDy=0;entryX=0.75;entryY=0;entryDx=0;entryDy=0;exitPerimeter=0;strokeWidth=2;" parent="1" source="qizNdXYnVyPi3BkZtSoY-17" target="qizNdXYnVyPi3BkZtSoY-65" edge="1">
          <mxGeometry width="50" height="50" relative="1" as="geometry">
            <mxPoint x="754" y="554" as="sourcePoint" />
            <mxPoint x="804" y="504" as="targetPoint" />
          </mxGeometry>
        </mxCell>
        <mxCell id="qizNdXYnVyPi3BkZtSoY-67" value="" style="endArrow=classic;html=1;rounded=0;exitX=0.444;exitY=0.996;exitDx=0;exitDy=0;entryX=0.75;entryY=0;entryDx=0;entryDy=0;exitPerimeter=0;strokeWidth=2;" parent="1" edge="1">
          <mxGeometry width="50" height="50" relative="1" as="geometry">
            <mxPoint x="696" y="443" as="sourcePoint" />
            <mxPoint x="696" y="463" as="targetPoint" />
          </mxGeometry>
        </mxCell>
        <mxCell id="qizNdXYnVyPi3BkZtSoY-68" value="" style="endArrow=classic;html=1;rounded=0;exitX=0.444;exitY=0.996;exitDx=0;exitDy=0;entryX=0.5;entryY=0;entryDx=0;entryDy=0;exitPerimeter=0;startArrow=classic;startFill=1;strokeWidth=2;" parent="1" target="qizNdXYnVyPi3BkZtSoY-30" edge="1">
          <mxGeometry width="50" height="50" relative="1" as="geometry">
            <mxPoint x="745.85" y="523" as="sourcePoint" />
            <mxPoint x="745.85" y="543" as="targetPoint" />
          </mxGeometry>
        </mxCell>
        <mxCell id="qizNdXYnVyPi3BkZtSoY-70" value="" style="endArrow=classic;startArrow=classic;html=1;rounded=0;entryX=0.5;entryY=1;entryDx=0;entryDy=0;exitX=1;exitY=0.5;exitDx=0;exitDy=0;strokeWidth=2;" parent="1" source="qizNdXYnVyPi3BkZtSoY-65" target="qizNdXYnVyPi3BkZtSoY-13" edge="1">
          <mxGeometry width="50" height="50" relative="1" as="geometry">
            <mxPoint x="895" y="501" as="sourcePoint" />
            <mxPoint x="945" y="451" as="targetPoint" />
            <Array as="points">
              <mxPoint x="946" y="493" />
            </Array>
          </mxGeometry>
        </mxCell>
        <mxCell id="qizNdXYnVyPi3BkZtSoY-33" value="" style="rounded=1;whiteSpace=wrap;html=1;rotation=90;fillColor=#D4E1F5;container=0;strokeWidth=3;" parent="1" vertex="1">
          <mxGeometry x="74.43" y="426.57000000000005" width="358.7" height="199.56" as="geometry" />
        </mxCell>
        <mxCell id="qizNdXYnVyPi3BkZtSoY-35" value="" style="rounded=0;whiteSpace=wrap;html=1;rotation=90;container=0;" parent="1" vertex="1">
          <mxGeometry x="112.23" y="426.8" width="283.93" height="187.85" as="geometry" />
        </mxCell>
        <mxCell id="qizNdXYnVyPi3BkZtSoY-36" value="" style="ellipse;whiteSpace=wrap;html=1;aspect=fixed;fillColor=#f5f5f5;fontColor=#333333;strokeColor=#666666;container=0;" parent="1" vertex="1">
          <mxGeometry x="234.19930000000002" y="666.7464705882354" width="34.101010101010104" height="34.101010101010104" as="geometry" />
        </mxCell>
        <mxCell id="qizNdXYnVyPi3BkZtSoY-37" value="" style="ellipse;whiteSpace=wrap;html=1;aspect=fixed;fillColor=#dae8fc;strokeColor=#6c8ebf;container=0;" parent="1" vertex="1">
          <mxGeometry x="246.19" y="350.85" width="10.12" height="10.12" as="geometry" />
        </mxCell>
        <mxCell id="qizNdXYnVyPi3BkZtSoY-38" value="" style="rounded=0;whiteSpace=wrap;html=1;fillColor=#000000;fontColor=#333333;strokeColor=#666666;container=0;" parent="1" vertex="1">
          <mxGeometry x="218.79" y="364.7217647058824" width="65.41000000000001" height="6.123529411764705" as="geometry" />
        </mxCell>
        <mxCell id="qizNdXYnVyPi3BkZtSoY-40" value="" style="ellipse;whiteSpace=wrap;html=1;aspect=fixed;fillColor=#000000;strokeColor=#6c8ebf;container=0;rotation=75;" parent="1" vertex="1">
          <mxGeometry x="209" y="364.54" width="6.31" height="6.31" as="geometry" />
        </mxCell>
        <mxCell id="qizNdXYnVyPi3BkZtSoY-47" value="" style="rounded=0;whiteSpace=wrap;html=1;fillColor=#d5e8d4;strokeColor=none;container=0;" parent="1" vertex="1">
          <mxGeometry x="160.5" y="589.85" width="187" height="72" as="geometry" />
        </mxCell>
        <mxCell id="qizNdXYnVyPi3BkZtSoY-46" value="&lt;b&gt;Unbind&lt;/b&gt;&lt;div&gt;&lt;b&gt;Port&lt;/b&gt;&lt;/div&gt;" style="rounded=0;whiteSpace=wrap;html=1;fillColor=#f5f5f5;fontColor=#333333;strokeColor=#000000;container=0;" parent="1" vertex="1">
          <mxGeometry x="271.5" y="595.85" width="72" height="60" as="geometry" />
        </mxCell>
        <mxCell id="qizNdXYnVyPi3BkZtSoY-44" value="" style="rounded=0;whiteSpace=wrap;html=1;fillColor=#f5f5f5;fontColor=#333333;strokeColor=#000000;container=0;" parent="1" vertex="1">
          <mxGeometry x="164.5" y="625.85" width="103.23" height="30" as="geometry" />
        </mxCell>
        <mxCell id="qizNdXYnVyPi3BkZtSoY-43" value="&lt;b&gt;UDP Receive Port&lt;/b&gt;" style="text;html=1;align=center;verticalAlign=middle;whiteSpace=wrap;rounded=0;container=0;" parent="1" vertex="1">
          <mxGeometry x="160" y="595.85" width="110" height="30" as="geometry" />
        </mxCell>
        <mxCell id="qizNdXYnVyPi3BkZtSoY-48" value="&lt;b&gt;25998&lt;/b&gt;" style="text;html=1;align=center;verticalAlign=middle;whiteSpace=wrap;rounded=0;container=0;" parent="1" vertex="1">
          <mxGeometry x="164.5" y="625.85" width="102" height="30" as="geometry" />
        </mxCell>
        <mxCell id="qizNdXYnVyPi3BkZtSoY-50" value="" style="rounded=0;whiteSpace=wrap;html=1;fillColor=#D5E8D4;strokeColor=none;container=0;" parent="1" vertex="1">
          <mxGeometry x="161" y="378.85" width="187" height="11" as="geometry" />
        </mxCell>
        <mxCell id="qizNdXYnVyPi3BkZtSoY-51" value="" style="rounded=0;whiteSpace=wrap;html=1;fillColor=#000000;container=0;" parent="1" vertex="1">
          <mxGeometry x="164.5" y="383.85" width="1.5" height="4" as="geometry" />
        </mxCell>
        <mxCell id="qizNdXYnVyPi3BkZtSoY-52" value="" style="rounded=0;whiteSpace=wrap;html=1;fillColor=#000000;container=0;" parent="1" vertex="1">
          <mxGeometry x="169" y="382.85" width="1.5" height="5" as="geometry" />
        </mxCell>
        <mxCell id="qizNdXYnVyPi3BkZtSoY-53" value="" style="rounded=0;whiteSpace=wrap;html=1;fillColor=#000000;container=0;" parent="1" vertex="1">
          <mxGeometry x="173" y="381.85" width="1.5" height="6" as="geometry" />
        </mxCell>
        <mxCell id="qizNdXYnVyPi3BkZtSoY-54" value="" style="rounded=0;whiteSpace=wrap;html=1;fillColor=#000000;container=0;" parent="1" vertex="1">
          <mxGeometry x="177" y="380.85" width="1.5" height="7" as="geometry" />
        </mxCell>
        <mxCell id="qizNdXYnVyPi3BkZtSoY-55" value="" style="rounded=0;whiteSpace=wrap;html=1;fillColor=#000000;container=0;" parent="1" vertex="1">
          <mxGeometry x="330" y="381.85" width="10" height="5" as="geometry" />
        </mxCell>
        <mxCell id="qizNdXYnVyPi3BkZtSoY-56" value="" style="rounded=0;whiteSpace=wrap;html=1;fillColor=#000000;container=0;" parent="1" vertex="1">
          <mxGeometry x="327.5" y="383.85" width="6" height="1" as="geometry" />
        </mxCell>
        <mxCell id="qizNdXYnVyPi3BkZtSoY-57" value="" style="endArrow=none;html=1;rounded=0;exitX=0.13;exitY=0;exitDx=0;exitDy=0;exitPerimeter=0;entryX=0;entryY=0;entryDx=0;entryDy=0;" parent="1" source="qizNdXYnVyPi3BkZtSoY-35" target="qizNdXYnVyPi3BkZtSoY-35" edge="1">
          <mxGeometry width="50" height="50" relative="1" as="geometry">
            <mxPoint x="314" y="413.85" as="sourcePoint" />
            <mxPoint x="364" y="363.85" as="targetPoint" />
          </mxGeometry>
        </mxCell>
        <mxCell id="qizNdXYnVyPi3BkZtSoY-58" value="" style="endArrow=none;html=1;rounded=0;entryX=0;entryY=0;entryDx=0;entryDy=0;exitX=0;exitY=0;exitDx=0;exitDy=0;" parent="1" source="qizNdXYnVyPi3BkZtSoY-50" target="qizNdXYnVyPi3BkZtSoY-35" edge="1">
          <mxGeometry width="50" height="50" relative="1" as="geometry">
            <mxPoint x="285" y="419.85" as="sourcePoint" />
            <mxPoint x="335" y="369.85" as="targetPoint" />
          </mxGeometry>
        </mxCell>
        <mxCell id="qizNdXYnVyPi3BkZtSoY-59" value="&lt;font style=&quot;font-size: 5px;&quot;&gt;&lt;b style=&quot;&quot;&gt;12:34&lt;/b&gt;&lt;/font&gt;" style="text;html=1;align=center;verticalAlign=middle;whiteSpace=wrap;rounded=0;container=0;" parent="1" vertex="1">
          <mxGeometry x="224.5" y="366.85" width="60" height="30" as="geometry" />
        </mxCell>
        <mxCell id="qizNdXYnVyPi3BkZtSoY-61" value="" style="endArrow=none;html=1;rounded=0;exitX=0.04;exitY=1.001;exitDx=0;exitDy=0;exitPerimeter=0;entryX=1;entryY=1;entryDx=0;entryDy=0;" parent="1" source="qizNdXYnVyPi3BkZtSoY-35" target="qizNdXYnVyPi3BkZtSoY-50" edge="1">
          <mxGeometry width="50" height="50" relative="1" as="geometry">
            <mxPoint x="191" y="460.85" as="sourcePoint" />
            <mxPoint x="241" y="410.85" as="targetPoint" />
          </mxGeometry>
        </mxCell>
        <mxCell id="qizNdXYnVyPi3BkZtSoY-63" value="" style="rounded=0;whiteSpace=wrap;html=1;fillColor=#E8FEE7;strokeColor=none;container=0;" parent="1" vertex="1">
          <mxGeometry x="161" y="389.85" width="186" height="200" as="geometry" />
        </mxCell>
        <mxCell id="qizNdXYnVyPi3BkZtSoY-42" value="&lt;font style=&quot;font-size: 22px;&quot;&gt;&lt;b&gt;AirDrive&lt;/b&gt;&lt;/font&gt;&lt;div&gt;&lt;span style=&quot;font-size: 22px;&quot;&gt;&lt;b&gt;přijímač&lt;/b&gt;&lt;/span&gt;&lt;/div&gt;&lt;div&gt;&lt;font style=&quot;font-size: 22px;&quot;&gt;&lt;b&gt;(aplikace)&lt;/b&gt;&lt;/font&gt;&lt;/div&gt;" style="text;html=1;align=center;verticalAlign=middle;whiteSpace=wrap;rounded=0;container=0;" parent="1" vertex="1">
          <mxGeometry x="158.49" y="198" width="186" height="149" as="geometry" />
        </mxCell>
        <mxCell id="qizNdXYnVyPi3BkZtSoY-49" value="" style="endArrow=none;html=1;rounded=0;exitX=0;exitY=1;exitDx=0;exitDy=0;entryX=1;entryY=1;entryDx=0;entryDy=0;strokeWidth=2;" parent="1" edge="1">
          <mxGeometry width="50" height="50" relative="1" as="geometry">
            <mxPoint x="162.0000000000001" y="589.2900000000002" as="sourcePoint" />
            <mxPoint x="347.9999999999998" y="589.2900000000002" as="targetPoint" />
          </mxGeometry>
        </mxCell>
        <mxCell id="qizNdXYnVyPi3BkZtSoY-72" value="&lt;b style=&quot;font-size: 18px;&quot;&gt;zařízení&lt;/b&gt;&lt;br&gt;&lt;div&gt;&lt;font style=&quot;font-size: 18px;&quot;&gt;&lt;b&gt;1&lt;/b&gt;&lt;/font&gt;&lt;/div&gt;" style="text;html=1;align=center;verticalAlign=middle;whiteSpace=wrap;rounded=0;" parent="1" vertex="1">
          <mxGeometry x="510" y="170" width="90" height="120" as="geometry" />
        </mxCell>
        <mxCell id="qizNdXYnVyPi3BkZtSoY-73" value="&lt;span style=&quot;font-size: 18px;&quot;&gt;&lt;b&gt;zařízení&lt;/b&gt;&lt;/span&gt;&lt;br&gt;&lt;div&gt;&lt;span style=&quot;font-size: 18px;&quot;&gt;&lt;b&gt;2&lt;/b&gt;&lt;/span&gt;&lt;/div&gt;" style="text;html=1;align=center;verticalAlign=middle;whiteSpace=wrap;rounded=0;" parent="1" vertex="1">
          <mxGeometry x="930" y="170" width="90" height="120" as="geometry" />
        </mxCell>
        <mxCell id="RBV7hKRJF5p7ZGhdcJtB-1" value="" style="rounded=1;whiteSpace=wrap;html=1;fillColor=#f5f5f5;fontColor=#333333;strokeColor=#666666;" parent="1" vertex="1">
          <mxGeometry x="163" y="394" width="182" height="20" as="geometry" />
        </mxCell>
        <mxCell id="RBV7hKRJF5p7ZGhdcJtB-2" value="" style="ellipse;whiteSpace=wrap;html=1;aspect=fixed;strokeWidth=2;fillColor=#f5f5f5;fontColor=#333333;strokeColor=#000000;" parent="1" vertex="1">
          <mxGeometry x="319" y="396.85" width="13" height="13" as="geometry" />
        </mxCell>
        <mxCell id="RBV7hKRJF5p7ZGhdcJtB-3" value="" style="endArrow=none;html=1;rounded=0;exitX=0.953;exitY=0.759;exitDx=0;exitDy=0;exitPerimeter=0;strokeWidth=2;" parent="1" source="RBV7hKRJF5p7ZGhdcJtB-2" edge="1">
          <mxGeometry width="50" height="50" relative="1" as="geometry">
            <mxPoint x="389" y="422.85" as="sourcePoint" />
            <mxPoint x="336" y="409.85" as="targetPoint" />
          </mxGeometry>
        </mxCell>
        <mxCell id="RBV7hKRJF5p7ZGhdcJtB-4" value="&lt;font style=&quot;font-size: 8px;&quot;&gt;&lt;b&gt;192.168.4.1/advanced.html&lt;/b&gt;&lt;/font&gt;" style="text;html=1;align=left;verticalAlign=middle;whiteSpace=wrap;rounded=0;" parent="1" vertex="1">
          <mxGeometry x="169" y="396.35" width="147" height="14" as="geometry" />
        </mxCell>
        <mxCell id="5T-xlOQUob_WEuRAa6tl-1" value="&lt;b&gt;teplota: 25.5&lt;/b&gt;" style="text;html=1;align=left;verticalAlign=middle;whiteSpace=wrap;rounded=0;" vertex="1" parent="1">
          <mxGeometry x="164.5" y="418.25" width="84.5" height="18" as="geometry" />
        </mxCell>
        <mxCell id="5T-xlOQUob_WEuRAa6tl-3" value="&lt;b&gt;teplota: 25.0&lt;/b&gt;" style="text;html=1;align=left;verticalAlign=middle;whiteSpace=wrap;rounded=0;" vertex="1" parent="1">
          <mxGeometry x="164.5" y="436.25" width="84.5" height="18" as="geometry" />
        </mxCell>
        <mxCell id="5T-xlOQUob_WEuRAa6tl-4" value="&lt;b&gt;teplota: 25.5&lt;/b&gt;" style="text;html=1;align=left;verticalAlign=middle;whiteSpace=wrap;rounded=0;" vertex="1" parent="1">
          <mxGeometry x="164.5" y="454.25" width="84.5" height="18" as="geometry" />
        </mxCell>
        <mxCell id="5T-xlOQUob_WEuRAa6tl-5" value="&lt;b&gt;teplota: 25.5&lt;/b&gt;" style="text;html=1;align=left;verticalAlign=middle;whiteSpace=wrap;rounded=0;" vertex="1" parent="1">
          <mxGeometry x="164.5" y="472.25" width="84.5" height="18" as="geometry" />
        </mxCell>
        <mxCell id="5T-xlOQUob_WEuRAa6tl-6" value="&lt;b&gt;teplota: 25.5&lt;/b&gt;" style="text;html=1;align=left;verticalAlign=middle;whiteSpace=wrap;rounded=0;" vertex="1" parent="1">
          <mxGeometry x="164.5" y="490.25" width="84.5" height="18" as="geometry" />
        </mxCell>
      </root>
    </mxGraphModel>
  </diagram>
</mxfile>
